<svg width="87" height="21" viewBox="0 0 87 21" fill="none" xmlns="http://www.w3.org/2000/svg">
<path d="M18.4407 0.901855H0V9.17304H4.47458V20.0205H13.8983V9.17304H18.4407V0.901855Z" fill="white"/>
<path d="M76.5425 0.495117C70.712 0.495117 66.3052 4.96969 66.3052 10.4612V10.529C66.3052 16.0205 70.6442 20.4951 76.4747 20.4951C82.3052 20.4951 86.7119 16.0205 86.7119 10.529V10.4612C86.7119 4.9019 82.373 0.495117 76.5425 0.495117Z" fill="white"/>
<path d="M32.2033 0.495117C26.3728 0.495117 21.9661 4.96969 21.9661 10.4612V10.529C21.9661 16.0205 26.305 20.4951 32.1356 20.4951C37.9661 20.4951 42.3728 16.0205 42.3728 10.529V10.4612C42.3728 4.9019 38.0339 0.495117 32.2033 0.495117Z" fill="white"/>
<path d="M52.0678 0.901855H46.4407V20.0883H52C58.9152 20.0883 62.8474 16.0205 62.8474 10.4612V10.3934C62.7796 4.83406 58.9152 0.901855 52.0678 0.901855Z" fill="white"/>
</svg>
